<?xml version="1.0" encoding="UTF-8"?><svg id="Layer_2" xmlns="http://www.w3.org/2000/svg" viewBox="0 0 669.32 260.01"><defs><style>.cls-1{fill-rule:evenodd;}.cls-1,.cls-2{fill:#fff;stroke-width:0px;}</style></defs><g id="Layer_1-2"><path class="cls-1" d="m359.97,0s-77.36,1.8-157.13,37.22c-68.99,30.63-87.11,69.38-87.11,102.29,0,18.35,18.32,32.16,37.71,32.16,13.5,0,31.72-6.43,39.97-36.04,8.25-29.6,21.31-64.15,55.05-92.52C297.85,1.57,359.97,0,359.97,0h0Z"/><path class="cls-2" d="m206.37,128.56S223.95,12.58,366.4,3.93c-21.89,8.65-31.33,18.87-28.18,26.87,35.25-15.72,107.34-11.93,154.38,17.43-11.54.39-17.04,5.25-18.61,10.36,13.5,3.54,69.19,26.08,98.94,81.52-30.01-24.12-113.11-86.4-201.03-78.77-104.05,9.04-165.53,67.23-165.53,67.23h0Z"/><path class="cls-1" d="m41.62,221.99c3.14,0,3.48,0,4.61,2.43l5.28,12.22c1.46,3.86,1.12,4.39-2.92,4.76l-2.47.26c-.68.54-.56,2.16.34,2.61,3.93-.09,8.87-.27,13.7-.27,5.83,0,9.99.1,14.59.27.79-.44.79-1.97-.11-2.61l-1.68-.26c-5.73-.81-6.28-1.44-8.87-7.47l-16.17-37.65c-1.8-4.05-3.26-8.27-5.05-12.31-.44-.45-1.01-.73-1.91-.73-.23,0-3.93,3.69-7.86,4.32.34,1.53-.68,3.68-2.13,6.56l-15.38,31.99c-2.35,4.86-4.15,8.63-5.5,10.96-1.68,2.97-2.92,3.78-6.18,4.14l-3.37.44c-.79.81-.68,2.16.11,2.61,3.93-.17,7.4-.27,11.11-.27,4.6.1,8.31.1,11.9.27.9-.36,1.01-1.97.22-2.61l-3.25-.44c-4.16-.45-4.61-.71-2.36-6.02l4.6-10.78c1.01-2.43.9-2.43,3.82-2.43h14.93Zm-13.14-4.04c-2.69,0-3.03,0-1.79-2.61l4.71-10.51c2.02-4.22,2.92-6.47,3.37-7.1h.22c.56.63,1.24,2.34,3.14,7.1l4.71,10.78c.9,2.15.45,2.34-2.69,2.34h-11.68Z"/><path class="cls-1" d="m637.65,223.2c2.96,0,3.27,0,4.33,2.34l4.96,11.79c1.37,3.73,1.06,4.25-2.74,4.6l-2.32.26c-.63.52-.52,2.08.32,2.51,3.69-.09,8.33-.26,12.88-.26,5.49,0,9.39.09,13.72.26.74-.43.74-1.9-.11-2.51l-1.58-.26c-5.38-.78-5.91-1.39-8.34-7.2l-15.2-36.33c-1.69-3.91-3.06-7.98-4.75-11.87-.42-.44-.95-.7-1.8-.7-.21,0-3.69,3.56-7.39,4.17.32,1.47-.63,3.55-2,6.33l-14.46,30.86c-2.21,4.69-3.91,8.32-5.17,10.58-1.59,2.87-2.74,3.65-5.81,3.99l-3.17.43c-.74.78-.63,2.08.1,2.51,3.7-.17,6.97-.26,10.45-.26,4.32.09,7.81.09,11.19.26.84-.35.95-1.9.21-2.51l-3.06-.43c-3.91-.43-4.33-.69-2.22-5.81l4.33-10.4c.95-2.34.85-2.34,3.59-2.34h14.03Zm-12.34-3.91c-2.53,0-2.85,0-1.69-2.51l4.43-10.14c1.9-4.08,2.74-6.25,3.17-6.85h.21c.52.61,1.16,2.25,2.95,6.85l4.43,10.4c.85,2.08.42,2.25-2.53,2.25h-10.98Z"/><path class="cls-1" d="m117.39,194.98c-20.71,0-35.3,10.98-35.3,25.79,0,12.43,12.42,23.18,30.37,24.27,1.18.07,1.87.29,3.65,1.6,9.66,7.56,23.27,13.37,36.48,13.37,4.24,0,9.37-.58,12.32-2.26.3-.43,0-1.23-.59-1.45-1.28.37-2.96.73-4.93.73-2.37,0-4.73-.28-7.1-.79-7.39-1.6-16.17-7.34-21.78-10.98-1.09-.65-1.48-1.23-.89-1.53,13.01-3.05,22.28-12.13,22.28-23.47,0-13.08-11.73-25.29-34.51-25.29h0Zm-1.28,2.91c15.67,0,22.38,12.71,22.38,23.68,0,14.6-9.07,20.78-20.31,20.78-16.86,0-22.67-13.66-22.67-23.68,0-15.48,10.74-20.78,20.6-20.78h0Z"/><path class="cls-2" d="m163.61,225.06c0,7.34,2.07,12.43,6.51,15.54,4.54,3.2,11.04,4.65,20.31,4.65,6.8,0,14.2-1.37,19.33-5.44,5.13-4.07,6.5-10.18,6.5-16.79v-8.64c0-5.75,0-12.14,1.38-14.32.69-1.16,2.47-1.45,4.34-1.74l2.17-.36c.78-.51.59-1.68-.2-2.03-3.65.14-6.31.22-10.45.22-3.84,0-7.59-.08-10.94-.22-.99.22-1.08,1.53-.19,2.03l1.97.22c2.46.29,4.04.8,4.93,1.88,1.78,2.11,1.87,8.87,1.87,14.32v9.08c0,11.04-5.33,18.23-18.24,18.23-13.7,0-17.84-8.42-17.84-18.46v-16.64c0-7.7.89-7.91,5.52-8.42l2.17-.22c.69-.51.59-1.74-.2-2.03-4.34.14-8.77.22-13.21.22s-8.77-.08-12.72-.22c-.79.29-.89,1.53-.19,2.03l1.67.22c4.64.51,5.52.73,5.52,8.42v18.46h0Z"/><path class="cls-1" d="m255.87,226.29c2.76,0,3.06,0,4.04,1.96l4.63,9.88c1.28,3.13.99,3.56-2.57,3.85l-2.17.22c-.59.43-.49,1.74.3,2.11,3.45-.08,7.79-.22,12.03-.22,5.13,0,8.77.06,12.82.22.69-.37.69-1.6-.1-2.11l-1.48-.22c-5.03-.65-5.52-1.16-7.79-6.03l-14.2-30.44c-1.58-3.27-2.86-6.69-4.44-9.96-.39-.36-.89-.59-1.68-.59-.19,0-3.45,2.99-6.9,3.5.3,1.23-.59,2.98-1.87,5.3l-13.51,25.86c-2.07,3.92-3.65,6.97-4.83,8.87-1.48,2.39-2.57,3.05-5.42,3.34l-2.96.36c-.69.66-.59,1.74.1,2.11,3.45-.15,6.51-.22,9.76-.22,4.04.06,7.3.06,10.45.22.79-.29.89-1.6.19-2.11l-2.86-.36c-3.65-.37-4.04-.58-2.07-4.87l4.04-8.72c.89-1.96.79-1.96,3.36-1.96h13.11Zm-11.54-3.27c-2.37,0-2.66,0-1.58-2.1l4.14-8.51c1.78-3.41,2.57-5.23,2.96-5.74h.2c.49.51,1.08,1.89,2.76,5.74l4.14,8.72c.79,1.74.4,1.88-2.37,1.88h-10.26Z"/><path class="cls-2" d="m309.7,206.6c0-7.56.89-7.77,5.52-8.28l2.17-.29c.79-.36.69-1.81-.2-2.1-4.34.14-8.77.22-13.11.22s-8.97-.08-13.9-.22c-.89.29-.89,1.74-.2,2.1l2.76.29c4.63.51,5.52.73,5.52,8.28v27.03c0,7.55-.89,7.77-5.52,8.21l-2.95.36c-.89.37-.6,1.82.19,2.11,4.14-.15,9.07-.22,14.1-.22h10.26c11.04,0,19.52.06,23.66.22,1.19-1.96,3.35-7.49,4.14-10.53-.49-.58-2.07-.8-3.06-.44-4.54,7.49-6.11,7.85-17.05,7.85-7.89,0-9.47-.58-10.65-1.59-1.48-1.24-1.67-3.85-1.67-7.49v-25.5h0Z"/><path class="cls-2" d="m353.45,233.63c0,7.71-.89,7.92-5.52,8.28l-3.65.29c-.69.51-.59,1.82.2,2.11,4.43-.15,10.45-.22,14.79-.22h11.24c11.53,0,20.01.06,24.35.22,1.38-1.96,3.55-7.49,4.14-10.53-.6-.74-2.27-.95-3.16-.44-3.45,5.89-5.62,8-18.14,7.85-8.29,0-9.96-.58-11.14-1.59-1.48-1.24-1.67-3.85-1.67-7.57v-9.22c0-1.82.1-1.96,2.37-1.96h4.73c8.58,0,10.26.14,10.94,3.19l.69,2.91c.78.43,2.66.43,3.16-.08-.1-2.33-.3-4.87-.3-7.63s.19-5.3.3-7.26c-.49-.58-2.37-.58-3.16-.08l-.69,2.48c-.69,3.12-2.37,3.19-10.94,3.19h-4.73c-2.27,0-2.37-.08-2.37-1.96v-12.28c0-4.13,0-4.29,4.24-4.29h6.6c2.66,0,5.62.15,7.89.66,3.16.57,4.63,2.39,6.21,6.6.79.44,2.76.29,3.16-.28-.59-3.13-1.18-8.87-1.57-10.1-1.28.14-7,.22-13.31.22h-18.83c-4.34,0-8.97-.08-12.72-.22-.79.29-.89,1.59-.19,2.1l1.58.15c4.63.51,5.52.73,5.52,8.42v27.03h0Z"/><path class="cls-2" d="m495.46,233.63c0,7.71-.89,7.92-5.52,8.21l-4.14.36c-.69.37-.59,1.82.19,2.11,6.31-.15,10.94-.22,15.28-.22s8.77.06,14.49.22c.79-.29.89-1.6.19-2.11l-3.55-.29c-4.63-.36-5.52-.57-5.52-8.28v-31.38c0-3.05.1-3.2,2.66-3.2h3.14c10.55,0,12.43,1.39,13.7,7.05.89.51,2.56.37,3.06-.22-.3-2.33.49-8.57,1.48-11.55-.2-.22-.69-.37-1.28-.37-.39,0-.79.15-1.19.29-1.19,1.68-2.66,1.89-7.49,1.89h-37.76c-6.71,0-8.09-.08-8.58-1.89-.2-.22-.59-.29-.99-.29-.49,0-.89.08-1.08.29-.69,2.54-2.17,7.05-3.85,10.98.39.73,2.47.94,3.16.51,3.65-5.89,6.31-6.69,15.38-6.69h5.52c2.56,0,2.66.15,2.66,3.2v31.38h0Z"/><path class="cls-1" d="m546.2,233.63c0,7.71-.89,7.92-5.53,8.36l-2.16.22c-.89.51-.6,1.82.19,2.11,4.54-.15,8.97-.22,13.31-.22s8.78.06,13.11.22c.79-.29.89-1.6.2-2.11l-2.17-.22c-4.63-.43-5.52-.65-5.52-8.36v-9.3c0-1.53.1-1.6,3.06-1.6,3.25,0,4.34.29,6.11,2.48,2.37,2.83,5.13,6.82,7.79,9.87,6.01,6.76,11.14,9.59,20.61,9.59,3.45,0,5.32-.22,6.51-.43.29-.36.29-1.16-.2-1.45-1.18-.08-4.04-.51-6.8-2.25-4.63-2.84-9.56-9.01-17.45-18.82-.39-.43-.59-1.02,0-1.23,4.83-1.45,11.83-4.8,11.83-11.47,0-5.23-3.65-8.65-8.68-10.61-4.34-1.74-11.04-2.47-18.73-2.47-8.09,0-16.47.22-22.68.65-.79.37-.79,1.53-.1,2.03l2.56.22c4.63.37,4.73,1.23,4.73,8.21v26.59h0Zm11.44-31.24c0-3.34.1-3.56,5.22-3.56,8.58,0,13.61,5.01,13.61,10.76,0,6.9-4.44,10.38-14.1,10.38-4.73,0-4.73-.14-4.73-2.47v-15.11h0Z"/><path class="cls-2" d="m451.48,196.46c4.09,1.14,6.37,1.71,6.83,1.71,1.22,0,2.19-.37,2.91-1.09.75-.74,1.22-1.49,1.4-2.3h2.67v17.47h-2.43c-2.31-3.8-4.67-6.79-7.07-8.97-4.49-4.04-9.58-6.06-15.26-6.06-6.43,0-11,2.16-13.72,6.49-2.68,4.31-4.03,10.1-4.03,17.36,0,5.35.8,9.75,2.39,13.21,2.96,6.47,8.47,9.7,16.52,9.7,4.93,0,9.52-1.06,13.76-3.2,2.43-1.25,5.3-3.23,8.61-5.94l2.86,1.82c-3.74,3.26-7.04,5.62-9.88,7.08-5.05,2.6-10.67,3.9-16.85,3.9-9.46,0-17.38-2.19-23.78-6.56-7.09-4.84-10.63-11.36-10.63-19.55s3.39-14.7,10.16-19.73c6.36-4.72,14.17-7.08,23.4-7.08,3.99,0,8.04.59,12.13,1.75h0Z"/></g></svg>